<?xml version="1.0" standalone="no"?>
<!DOCTYPE svg PUBLIC "-//W3C//DTD SVG 20010904//EN"
 "http://www.w3.org/TR/2001/REC-SVG-20010904/DTD/svg10.dtd">
<svg version="1.0" xmlns="http://www.w3.org/2000/svg"
 width="400.000000pt" height="409.000000pt" viewBox="0 0 400.000000 409.000000"
 preserveAspectRatio="xMidYMid meet">

<g transform="translate(0.000000,409.000000) scale(0.100000,-0.100000)"
fill="#000000" stroke="none">
<path d="M10 4084 c0 -3 348 -511 773 -1130 424 -618 773 -1128 775 -1132 1
-5 -346 -414 -773 -910 -426 -496 -775 -904 -775 -907 0 -3 76 -5 169 -5 l170
0 683 795 c632 735 684 793 698 777 8 -10 255 -368 549 -795 l533 -777 590 0
c468 0 589 3 585 13 -2 6 -364 534 -802 1172 -439 638 -798 1165 -799 1171 0
6 332 397 738 870 l739 859 -173 3 c-95 1 -174 1 -175 0 -1 -2 -291 -340 -645
-752 -627 -729 -644 -748 -660 -728 -10 11 -243 349 -519 751 l-502 731 -590
0 c-324 0 -589 -3 -589 -6z m2257 -2037 c684 -978 1243 -1782 1243 -1788 0 -5
-106 -9 -265 -9 l-264 0 -39 53 c-59 78 -2462 3517 -2462 3523 0 2 122 3 272
2 l272 -3 1243 -1778z"/>
</g>
</svg>
